<?xml version="1.0" encoding="UTF-8" standalone="no"?>
<svg
   width="301.96887"
   zoomAndPan="magnify"
   viewBox="0 0 226.47665 119.63858"
   height="159.51811"
   preserveAspectRatio="xMidYMid meet"
   version="1.0"
   id="svg107"
   sodipodi:docname="myLogo.svg"
   inkscape:version="1.1 (c68e22c387, 2021-05-23)"
   xmlns:inkscape="http://www.inkscape.org/namespaces/inkscape"
   xmlns:sodipodi="http://sodipodi.sourceforge.net/DTD/sodipodi-0.dtd"
   xmlns="http://www.w3.org/2000/svg"
   xmlns:svg="http://www.w3.org/2000/svg">
  <sodipodi:namedview
     id="namedview109"
     pagecolor="#ffffff"
     bordercolor="#666666"
     borderopacity="1.0"
     inkscape:pageshadow="2"
     inkscape:pageopacity="0.0"
     inkscape:pagecheckerboard="0"
     showgrid="false"
     inkscape:zoom="2.4229224"
     inkscape:cx="51.384229"
     inkscape:cy="91.418528"
     inkscape:window-width="1920"
     inkscape:window-height="991"
     inkscape:window-x="-9"
     inkscape:window-y="-9"
     inkscape:window-maximized="1"
     inkscape:current-layer="svg107" />
  <defs
     id="defs13">
    <g
       id="g2" />
    <clipPath
       id="3ad3fd6412">
      <path
         d="m 98.929688,140.20703 h 49.500002 v 63.09375 H 98.929688 Z m 0,0"
         clip-rule="nonzero"
         id="path4" />
    </clipPath>
    <clipPath
       id="7a1e79109c">
      <path
         d="m 226.5625,140.54687 h 49.5 v 63.09375 h -49.5 z m 0,0"
         clip-rule="nonzero"
         id="path7" />
    </clipPath>
    <clipPath
       id="43c555a798">
      <path
         d="m 149,100.24609 h 77.4375 v 105 H 149 Z m 0,0"
         clip-rule="nonzero"
         id="path10" />
    </clipPath>
  </defs>
  <g
     clip-path="url(#3ad3fd6412)"
     id="g17"
     transform="translate(-74.33833,-100.33203)"
     style="fill:#ffa726;fill-opacity:1">
    <path
       fill="#008037"
       d="m 135.51562,203.30078 h 12.91407 l -30.43413,-31.23733 30.43413,-31.85642 h -12.91407 l -36.624995,31.54688 36.624995,31.54687"
       fill-opacity="1"
       fill-rule="nonzero"
       id="path15"
       style="fill:#ffa726;fill-opacity:1"
       sodipodi:nodetypes="ccccccc" />
  </g>
  <g
     clip-path="url(#7a1e79109c)"
     id="g21"
     transform="translate(-74.33833,-100.33203)">
    <path
       fill="#008037"
       d="M 239.47656,140.54687 H 226.5625 l 31.36276,31.85643 -31.36276,31.23732 h 12.91406 l 36.625,-31.54687 -36.625,-31.54688"
       fill-opacity="1"
       fill-rule="nonzero"
       id="path19"
       style="fill:#f49f1c;fill-opacity:1"
       sodipodi:nodetypes="ccccccc" />
  </g>
  <g
     clip-path="url(#43c555a798)"
     id="g25"
     transform="translate(-74.33833,-100.33203)">
    <path
       fill="#000000"
       d="m 221.25,166.58203 h -7.54688 c -0.45703,-2.08203 -1.99218,-8.46094 -4.19921,-11.40625 -2.125,-2.83594 -7.94922,-5.5625 -10.27735,-6.57422 2.46875,-3.6914 6.25781,-11.42187 6.25781,-17.24219 0,-2.07031 -0.83984,-4.40234 -2.47265,-6.92578 0.16797,-1.09375 0.55469,-4.74218 -0.9375,-8.47656 -1.75391,-4.40625 -11.23438,-15.625 -17.53516,-15.625 -6.29687,0 -16.66797,9.67188 -19.21875,16.47656 -1.65234,4.42188 -0.55859,7.70313 -0.11328,8.73829 -1.62109,3.6289 -2.45312,6.71874 -2.45312,9.16796 0,3.5 4.58203,11.125 6.24609,13.78125 -2.13281,0.7461 -6.93359,2.84766 -10.27734,7.53516 -4.23047,5.92578 -10.26563,36.34766 -9.35547,40.90234 0.88672,4.44141 5.14453,7.89453 5.32422,8.03907 0.14843,0.12109 0.33203,0.18359 0.52343,0.18359 h 51.9375 c 0.46094,0 0.83594,-0.375 0.83594,-0.83594 v -1.96094 c 0.26563,0 0.53516,-0.0312 0.79688,-0.0977 l 2.3164,-0.6211 c 0.34766,0.0742 0.69922,0.125 1.05078,0.125 0.7461,0 1.49219,-0.17187 2.17578,-0.51171 l 7.32422,-3.67188 c 2.69532,-0.19922 4.77735,-2.42187 4.77735,-5.15625 v -20.66016 c 0,-2.85937 -2.32422,-5.18359 -5.17969,-5.18359 z m -25.3125,29.97266 c -0.0117,-0.0391 -0.0234,-0.0781 -0.0391,-0.11328 l -0.875,-3.24219 c -0.0195,-0.0664 -0.0273,-0.14063 -0.0273,-0.22656 0,-0.40235 0.26563,-0.75 0.65235,-0.84766 0.46875,-0.11719 0.9375,0.17187 1.05468,0.63672 0,0.004 0,0.004 0,0.004 l 0.92969,3.69532 c 0.25391,1.03125 0.78516,1.97265 1.53516,2.72265 l 0.38281,0.38282 -1.26562,0.21093 c -0.80079,0.13282 -1.57422,-0.35937 -1.78516,-1.13672 z m 4.41406,1.4414 c -0.53515,-0.53125 -0.91015,-1.20312 -1.09375,-1.9414 l -0.92969,-3.69532 c -0.0547,-0.22656 -0.0195,-0.45703 0.10157,-0.66015 0.12109,-0.19922 0.3125,-0.33985 0.53515,-0.39453 0.0234,-0.008 0.0547,-0.0156 0.0859,-0.0273 0.20703,-0.043 0.42188,0 0.60547,0.10938 0.19922,0.12109 0.33984,0.3125 0.39844,0.53906 l 0.92968,3.70313 c 0.25391,1.02343 0.78516,1.96484 1.53516,2.71484 l 2.16406,2.16797 -0.40234,0.10156 c -0.64844,0.16406 -1.34766,-0.0352 -1.82422,-0.50781 z m 7.8125,-41.8125 c 1.875,2.5 3.29688,8.11328 3.82031,10.39844 h -6.17578 l 1.3086,-3.92969 c 0.14453,-0.4375 -0.0937,-0.91406 -0.53125,-1.05859 -0.44141,-0.14844 -0.91407,0.0898 -1.0586,0.52734 l -1.48437,4.46094 h -15.16406 c -1.35157,0 -2.58204,0.52344 -3.50391,1.375 v -0.5625 c 0,-0.57812 -0.043,-1.15625 -0.13281,-1.71484 -0.41407,-2.61719 -0.66797,-4.67969 -0.69922,-5.62891 0.29297,0.0352 0.60547,0.0547 0.92578,0.0547 0.60156,0 1.23828,-0.0742 1.84766,-0.27735 2.22265,-0.74218 6.27343,-4.57031 9.10156,-7.71875 -0.58203,2.07422 -1.59375,4.66797 -3.25781,6.33204 -3.03516,3.03906 -6.08204,3.10937 -6.10938,3.10937 -0.46094,0 -0.83594,0.375 -0.83594,0.83594 0,0.46484 0.375,0.83984 0.83594,0.83984 0.15234,0 3.73828,-0.0391 7.29688,-3.59765 2.69921,-2.70313 3.83593,-7.26563 4.25,-9.46875 2.22656,0.97265 7.70703,3.53906 9.5664,6.02343 z m -26.8789,-23.9414 c -1.19532,0.50781 -2.14454,1.46093 -2.65235,2.65625 -0.51172,-1.19532 -1.46094,-2.14844 -2.65625,-2.65625 1.19531,-0.51172 2.14453,-1.46094 2.65625,-2.65625 0.50781,1.19531 1.45703,2.14453 2.65235,2.65625 z m -30.27735,64.36328 c -0.82031,-4.11328 5.05469,-33.96094 9.07813,-39.60156 3.02343,-4.23438 7.46875,-6.20313 9.42578,-6.90235 0.11719,1.49219 0.5039,4.15625 1.76172,6.04297 1.83203,2.75391 5.37109,3.66797 5.51953,3.70313 0.0703,0.0195 0.13672,0.0273 0.20312,0.0273 0.375,0 0.71485,-0.25391 0.8125,-0.63672 0.11328,-0.44922 -0.16015,-0.90234 -0.60937,-1.01562 -0.0273,-0.008 -3.0625,-0.80079 -4.53125,-3.00782 -0.69141,-1.03515 -1.07031,-2.40625 -1.27735,-3.60156 1.875,1.97656 4.11719,3.78125 4.2461,3.88281 0.15625,0.125 0.33984,0.1836 0.52344,0.1836 0.24609,0 0.48828,-0.10547 0.65234,-0.31641 0.28906,-0.35937 0.23047,-0.88672 -0.12891,-1.17578 -0.043,-0.0352 -4.08593,-3.28516 -5.68359,-5.66016 -0.004,-0.008 -0.004,-0.0156 -0.008,-0.0195 -2.28907,-3.4375 -6.5625,-11.01172 -6.5625,-13.79297 0,-2.26172 0.85547,-5.32812 2.47265,-8.85937 1.83985,-4.05469 4.06641,-7.41406 4.08985,-7.44922 0.25781,-0.38281 0.15234,-0.90625 -0.23047,-1.16016 -0.38672,-0.25781 -0.90625,-0.15625 -1.16406,0.23047 -0.0781,0.1211 -1.67969,2.53907 -3.32032,5.8086 -0.2539,-1.35547 -0.3164,-3.39844 0.61328,-5.88672 2.53125,-6.75781 12.42969,-15.39063 17.64844,-15.39063 5.34375,0 14.35547,10.48828 15.97656,14.57032 0.84375,2.10937 1.00782,4.22265 0.98047,5.72656 -1.88281,-2.40235 -3.73828,-4.06641 -3.83593,-4.15235 -0.34375,-0.30468 -0.875,-0.27343 -1.1836,0.0703 -0.30469,0.34765 -0.27344,0.8789 0.0703,1.1875 0.0273,0.0234 2.77735,2.47656 4.87891,5.65625 1.55859,2.32812 2.38281,4.50781 2.38281,6.29296 0,5.40235 -3.86718,13.54297 -6.53515,17.10938 -0.008,0.004 -0.008,0.0156 -0.0117,0.0195 -2.69141,3.57422 -8.35547,9.04297 -10.47656,9.75 -0.58594,0.19531 -1.23047,0.21094 -1.82032,0.16406 0.10157,-0.22265 0.21485,-0.44531 0.32813,-0.67968 0.45312,-0.90625 0.92187,-1.84766 0.92187,-2.88282 0,-1.28515 -0.43359,-2.96093 -0.69531,-3.84375 2.73828,-1.88672 14.9375,-10.65234 14.9375,-17.12109 0,-11.25391 -10.00781,-14.25391 -15.91797,-14.25391 -5.91406,0 -15.91797,3 -15.91797,14.25391 0,6.72266 13.16797,15.92187 15.20703,17.30469 0.20313,0.66797 0.71094,2.4414 0.71094,3.66015 0,0.64063 -0.36328,1.36719 -0.74609,2.13672 -0.17969,0.35938 -0.35938,0.73047 -0.51563,1.10547 -0.98437,-0.28125 -1.71093,-0.63281 -1.71875,-0.64062 -0.41406,-0.19922 -0.91797,-0.0312 -1.12109,0.38281 -0.20703,0.41406 -0.0352,0.91797 0.375,1.12109 0.043,0.0234 0.89453,0.4375 2.0625,0.76563 -0.004,0.0547 -0.0117,0.10937 -0.0117,0.16015 0,1.3086 0.45313,4.36328 0.72266,6.07032 0.0742,0.47656 0.11328,0.96484 0.11328,1.45312 v 36.08594 h -6.09766 l 0.15235,-1.25391 c 0.16015,-1.375 0.082,-2.84375 -0.21875,-4.14062 l -0.5586,-2.34766 c -0.10937,-0.44922 -0.55859,-0.72656 -1.01172,-0.62109 -0.44922,0.10547 -0.72656,0.55859 -0.62109,1.01172 l 0.55859,2.33984 c 0.25782,1.11328 0.32422,2.37891 0.1875,3.55859 l -0.17578,1.45313 h -2.09375 c 0.25391,-1.3711 0.66406,-3.79688 0.66406,-5.03125 0,-1.85547 -0.89062,-3.65625 -0.92578,-3.73047 -0.20703,-0.41406 -0.71093,-0.57813 -1.125,-0.375 -0.41015,0.20703 -0.58203,0.71094 -0.375,1.125 0.004,0.008 0.30078,0.61328 0.51953,1.42187 -1.72265,-0.94921 -4.55078,-2.45703 -6.41406,-3.19531 0.19531,-2 0.78125,-8.05859 0.78125,-9.5039 0,-1.03516 -0.47265,-1.98047 -0.92578,-2.89063 -0.38672,-0.77344 -0.75,-1.5 -0.75,-2.14062 0,-0.47266 0.17969,-1.48829 0.375,-2.56641 0.46875,-2.61328 1.05078,-5.86328 0.41797,-7.76172 -0.89063,-2.67187 -2.64063,-4.44531 -2.71484,-4.51953 -0.32813,-0.32813 -0.85547,-0.32813 -1.1836,-0.004 -0.32812,0.32813 -0.32812,0.85938 -0.004,1.1875 0.0156,0.0156 1.55078,1.58203 2.3125,3.86719 0.49609,1.49219 -0.0664,4.64063 -0.48047,6.9375 -0.22266,1.25 -0.39844,2.23828 -0.39844,2.85938 0,1.03515 0.46875,1.98046 0.92578,2.89062 0.38281,0.77344 0.75,1.5 0.75,2.14063 0,1.29296 -0.52734,6.83203 -0.74219,9.05468 -1.46875,-0.1875 -2.78515,0.1875 -2.85156,0.20703 -0.44141,0.13282 -0.69141,0.59766 -0.5625,1.03907 0.13281,0.44531 0.59766,0.69922 1.04297,0.5664 0.0156,-0.004 1.53906,-0.4414 2.84766,-0.008 2.01953,0.67188 6.39843,3.09375 7.78515,3.875 -0.0859,1.30859 -0.46875,3.46484 -0.67187,4.55469 h -16.59375 c -0.83985,-0.73438 -3.85157,-3.5625 -4.51563,-6.875 z m 34.36719,6.875 v -7.2461 c 0.92578,0.85157 2.15234,1.375 3.50391,1.375 h 5.60937 l 0.39453,1.47266 c 0.39453,1.43359 1.69141,2.39453 3.13672,2.39453 0.17578,0 0.35938,-0.0156 0.53906,-0.0469 l 2.44922,-0.40625 0.26563,0.26562 c 0.67968,0.6836 1.60937,1.05469 2.55468,1.05469 0.28907,0 0.57813,-0.0352 0.86329,-0.10547 l 1.5,-0.375 c 0.043,0.0234 0.0781,0.0547 0.125,0.082 v 1.53516 z m 22.98828,-2.84375 c -0.30469,0.0781 -0.64453,0.0625 -0.94141,-0.0312 -0.21093,-0.0703 -0.41015,-0.17969 -0.57812,-0.3125 -0.0469,-0.0352 -0.082,-0.0742 -0.125,-0.11719 l -3.01563,-3.01562 c -0.53515,-0.53907 -0.91406,-1.20704 -1.09375,-1.9375 l -0.92968,-3.70313 c -0.11719,-0.46484 0.17187,-0.94141 0.64843,-1.05859 l 0.14844,-0.0391 c 0.4375,-0.10937 0.89453,0.14063 1.03906,0.56641 l 0.26172,0.78516 c 0,0.008 0,0.0117 0.004,0.0195 0,0.004 0.004,0.004 0.004,0.008 l 0.90234,2.71875 0.32812,0.98047 c 0.375,1.12891 1.01563,2.16406 1.85157,3.00391 l 1.82422,1.82812 c 0.0625,0.0586 0.1289,0.10938 0.1914,0.16406 z m 5.21875,-0.88672 c -0.71094,0.35547 -1.52344,0.43359 -2.28516,0.22266 -0.54687,-0.15235 -1.02343,-0.42969 -1.41796,-0.82422 l -1.82422,-1.82813 c -0.65625,-0.65625 -1.15625,-1.46875 -1.44922,-2.34765 l -0.32813,-0.98047 -0.90625,-2.72657 c -0.10937,-0.36328 -0.0664,-0.74218 0.125,-1.07031 0.19532,-0.33203 0.51172,-0.55859 0.8711,-0.63281 0.63281,-0.10938 1.28906,0.22266 1.52343,0.8125 l 1.94141,4.87109 c 0.57031,1.41407 1.97266,2.36328 3.49219,2.36328 h 4.53125 z m 0,0"
       fill-opacity="1"
       fill-rule="nonzero"
       id="path23"
       style="fill:#008b47;fill-opacity:1" />
  </g>
  <g
     fill="#000000"
     fill-opacity="1"
     id="g33"
     transform="matrix(1.1561037,0,0,1,-85.942816,-100.33203)">
    <g
       transform="translate(73.40083,219.62686)"
       id="g31">
      <g
         id="g29">
        <path
           d="m 10.421875,-18.453125 c 2.382813,0 4.1875,0.539063 5.40625,1.609375 1.226563,1.074219 1.84375,2.621094 1.84375,4.640625 0,2.023437 -0.617187,3.574219 -1.84375,4.65625 -1.21875,1.074219 -3.023437,1.609375 -5.40625,1.609375 h -2.34375 v 2.75 h 3.375 c 0.25,0 0.441406,0.046875 0.578125,0.140625 0.132812,0.085937 0.234375,0.242187 0.296875,0.46875 0.07031,0.230469 0.109375,0.558594 0.109375,0.984375 0,0.4375 -0.03906,0.773438 -0.109375,1 -0.0625,0.230469 -0.164063,0.386719 -0.296875,0.46875 C 11.894531,-0.0390625 11.703125,0 11.453125,0 H 1.90625 C 1.664062,0 1.476562,-0.0390625 1.34375,-0.125 1.207031,-0.207031 1.101562,-0.363281 1.03125,-0.59375 c -0.0625,-0.226562 -0.09375,-0.5625 -0.09375,-1 0,-0.425781 0.03125,-0.753906 0.09375,-0.984375 0.070312,-0.226563 0.175781,-0.382813 0.3125,-0.46875 C 1.476562,-3.140625 1.664062,-3.1875 1.90625,-3.1875 H 4.203125 V -15.265625 H 1.90625 c -0.242188,0 -0.429688,-0.03906 -0.5625,-0.125 -0.136719,-0.08203 -0.242188,-0.238281 -0.3125,-0.46875 -0.0625,-0.226563 -0.09375,-0.5625 -0.09375,-1 0,-0.4375 0.03125,-0.765625 0.09375,-0.984375 0.070312,-0.226562 0.175781,-0.382812 0.3125,-0.46875 0.132812,-0.09375 0.320312,-0.140625 0.5625,-0.140625 z M 8.078125,-9.28125 H 9.9375 c 1.226562,0 2.15625,-0.238281 2.78125,-0.71875 0.632812,-0.476562 0.953125,-1.210938 0.953125,-2.203125 0,-1 -0.320313,-1.734375 -0.953125,-2.203125 -0.625,-0.46875 -1.554688,-0.703125 -2.78125,-0.703125 H 8.078125 Z m 0,0"
           id="path27"
           style="fill:#008b47;fill-opacity:1" />
      </g>
    </g>
  </g>
  <g
     fill="#000000"
     fill-opacity="1"
     id="g41"
     transform="translate(-74.33833,-100.33203)">
    <g
       transform="translate(96.634347,219.62686)"
       id="g39">
      <g
         id="g37">
        <path
           d="m 10.109375,-18.453125 c 2.1875,0 3.863281,0.484375 5.03125,1.453125 1.175781,0.960938 1.765625,2.355469 1.765625,4.1875 0,2.398438 -1.289062,3.90625 -3.859375,4.53125 0.5625,0.210938 1.003906,0.527344 1.328125,0.953125 0.21875,0.28125 0.414062,0.578125 0.59375,0.890625 0.1875,0.304688 0.398438,0.6875 0.640625,1.15625 0.25,0.492188 0.441406,0.84375 0.578125,1.0625 0.207031,0.34375 0.414062,0.605469 0.625,0.78125 0.207031,0.167969 0.441406,0.25 0.703125,0.25 h 0.28125 c 0.25,0 0.441406,0.046875 0.578125,0.140625 0.132812,0.085937 0.234375,0.242187 0.296875,0.46875 0.07031,0.230469 0.109375,0.558594 0.109375,0.984375 0,0.4375 -0.03906,0.773438 -0.109375,1 C 18.609375,-0.363281 18.507812,-0.207031 18.375,-0.125 18.238281,-0.0390625 18.046875,0 17.796875,0 h -1.5 c -0.824219,0 -1.492187,-0.164062 -2,-0.5 -0.5,-0.332031 -0.964844,-0.882812 -1.390625,-1.65625 -0.210938,-0.363281 -0.460938,-0.863281 -0.75,-1.5 C 11.945312,-4.132812 11.75,-4.546875 11.5625,-4.890625 11.375,-5.234375 11.171875,-5.570312 10.953125,-5.90625 10.628906,-6.351562 10.269531,-6.675781 9.875,-6.875 9.476562,-7.070312 9.003906,-7.171875 8.453125,-7.171875 H 7.46875 V -3.1875 h 1.5 c 0.25,0 0.441406,0.046875 0.578125,0.140625 0.132813,0.085937 0.234375,0.242187 0.296875,0.46875 0.070312,0.230469 0.109375,0.558594 0.109375,0.984375 0,0.4375 -0.039063,0.773438 -0.109375,1 C 9.78125,-0.363281 9.679688,-0.207031 9.546875,-0.125 9.410156,-0.0390625 9.21875,0 8.96875,0 H 1.90625 C 1.664062,0 1.476562,-0.0390625 1.34375,-0.125 1.207031,-0.207031 1.101562,-0.363281 1.03125,-0.59375 c -0.0625,-0.226562 -0.09375,-0.5625 -0.09375,-1 0,-0.425781 0.03125,-0.753906 0.09375,-0.984375 0.070312,-0.226563 0.175781,-0.382813 0.3125,-0.46875 C 1.476562,-3.140625 1.664062,-3.1875 1.90625,-3.1875 H 3.578125 V -15.265625 H 1.90625 c -0.242188,0 -0.429688,-0.03906 -0.5625,-0.125 -0.136719,-0.08203 -0.242188,-0.238281 -0.3125,-0.46875 -0.0625,-0.226563 -0.09375,-0.5625 -0.09375,-1 0,-0.4375 0.03125,-0.765625 0.09375,-0.984375 0.070312,-0.226562 0.175781,-0.382812 0.3125,-0.46875 0.132812,-0.09375 0.320312,-0.140625 0.5625,-0.140625 z m -2.640625,7.9375 h 2.3125 c 1.050781,0 1.832031,-0.1875 2.34375,-0.5625 0.507812,-0.375 0.765625,-0.953125 0.765625,-1.734375 0,-0.78125 -0.257813,-1.359375 -0.765625,-1.734375 -0.511719,-0.375 -1.292969,-0.5625 -2.34375,-0.5625 h -2.3125 z m 0,0"
           id="path35"
           style="fill:#008b47;fill-opacity:1" />
      </g>
    </g>
  </g>
  <g
     fill="#000000"
     fill-opacity="1"
     id="g49"
     transform="translate(-74.33833,-100.33203)">
    <g
       transform="translate(119.86786,219.62686)"
       id="g47">
      <g
         id="g45">
        <path
           d="m 17.34375,-18.453125 c 0.238281,0 0.425781,0.04687 0.5625,0.140625 0.132812,0.08594 0.234375,0.242188 0.296875,0.46875 0.07031,0.21875 0.109375,0.546875 0.109375,0.984375 0,0.4375 -0.03906,0.773437 -0.109375,1 -0.0625,0.230469 -0.164063,0.386719 -0.296875,0.46875 -0.136719,0.08594 -0.324219,0.125 -0.5625,0.125 h -0.734375 v 8.84375 c 0,1.429687 -0.289063,2.652344 -0.859375,3.671875 -0.574219,1.011719 -1.390625,1.78125 -2.453125,2.3125 -1.054687,0.5195312 -2.304687,0.78125 -3.75,0.78125 C 8.097656,0.34375 6.84375,0.0820312 5.78125,-0.4375 4.726562,-0.96875 3.914062,-1.738281 3.34375,-2.75 2.769531,-3.769531 2.484375,-4.992188 2.484375,-6.421875 v -8.84375 H 1.75 c -0.242188,0 -0.429688,-0.03906 -0.5625,-0.125 -0.136719,-0.08203 -0.242188,-0.238281 -0.3125,-0.46875 -0.0625,-0.226563 -0.09375,-0.5625 -0.09375,-1 0,-0.4375 0.03125,-0.765625 0.09375,-0.984375 0.070312,-0.226562 0.175781,-0.382812 0.3125,-0.46875 0.132812,-0.09375 0.320312,-0.140625 0.5625,-0.140625 h 5.828125 c 0.25,0 0.4375,0.04687 0.5625,0.140625 0.132813,0.08594 0.234375,0.242188 0.296875,0.46875 0.070312,0.21875 0.109375,0.546875 0.109375,0.984375 0,0.4375 -0.039063,0.773437 -0.109375,1 -0.0625,0.230469 -0.164062,0.386719 -0.296875,0.46875 -0.125,0.08594 -0.3125,0.125 -0.5625,0.125 H 6.375 v 8.53125 c 0,1.199219 0.28125,2.089844 0.84375,2.671875 0.570312,0.585938 1.347656,0.875 2.328125,0.875 0.976563,0 1.75,-0.289062 2.3125,-0.875 0.570313,-0.582031 0.859375,-1.472656 0.859375,-2.671875 v -8.53125 h -1.203125 c -0.25,0 -0.445313,-0.03906 -0.578125,-0.125 -0.125,-0.08203 -0.226562,-0.238281 -0.296875,-0.46875 -0.0625,-0.226563 -0.09375,-0.5625 -0.09375,-1 0,-0.4375 0.03125,-0.765625 0.09375,-0.984375 0.07031,-0.226562 0.171875,-0.382812 0.296875,-0.46875 0.132812,-0.09375 0.328125,-0.140625 0.578125,-0.140625 z m 0,0"
           id="path43"
           style="fill:#008b47;fill-opacity:1" />
      </g>
    </g>
  </g>
  <g
     fill="#000000"
     fill-opacity="1"
     id="g57"
     transform="translate(-74.33833,-100.33203)">
    <g
       transform="translate(143.10138,219.62686)"
       id="g55">
      <g
         id="g53">
        <path
           d="m 16.5625,-18.453125 c 0.363281,0 0.617188,0.07813 0.765625,0.234375 0.15625,0.15625 0.234375,0.414062 0.234375,0.765625 v 6.5625 c 0,0.34375 -0.140625,0.59375 -0.421875,0.75 -0.28125,0.15625 -0.71875,0.234375 -1.3125,0.234375 -0.574219,0 -0.96875,-0.070312 -1.1875,-0.21875 -0.21875,-0.15625 -0.328125,-0.410156 -0.328125,-0.765625 v -4.21875 H 11.484375 V -3.1875 h 3.359375 c 0.25,0 0.441406,0.046875 0.578125,0.140625 0.132813,0.085937 0.234375,0.242187 0.296875,0.46875 0.07031,0.230469 0.109375,0.558594 0.109375,0.984375 0,0.4375 -0.03906,0.773438 -0.109375,1 -0.0625,0.230469 -0.164062,0.386719 -0.296875,0.46875 C 15.285156,-0.0390625 15.09375,0 14.84375,0 H 4.25 C 4,0 3.804688,-0.0390625 3.671875,-0.125 3.535156,-0.207031 3.429688,-0.363281 3.359375,-0.59375 c -0.0625,-0.226562 -0.09375,-0.5625 -0.09375,-1 0,-0.425781 0.03125,-0.753906 0.09375,-0.984375 0.070313,-0.226563 0.175781,-0.382813 0.3125,-0.46875 C 3.804688,-3.140625 4,-3.1875 4.25,-3.1875 H 7.609375 V -15.109375 H 4.78125 v 4.21875 c 0,0.34375 -0.140625,0.59375 -0.421875,0.75 -0.28125,0.15625 -0.71875,0.234375 -1.3125,0.234375 -0.574219,0 -0.96875,-0.070312 -1.1875,-0.21875 -0.21875,-0.15625 -0.328125,-0.410156 -0.328125,-0.765625 v -6.5625 c 0,-0.351563 0.078125,-0.609375 0.234375,-0.765625 0.15625,-0.15625 0.410156,-0.234375 0.765625,-0.234375 z m 0,0"
           id="path51"
           style="fill:#008b47;fill-opacity:1" />
      </g>
    </g>
  </g>
  <g
     fill="#000000"
     fill-opacity="1"
     id="g65"
     transform="translate(-74.33833,-100.33203)">
    <g
       transform="translate(166.3349,219.62686)"
       id="g63">
      <g
         id="g61">
        <path
           d="m 17.34375,-18.453125 c 0.238281,0 0.425781,0.04687 0.5625,0.140625 0.132812,0.08594 0.234375,0.242188 0.296875,0.46875 0.07031,0.21875 0.109375,0.546875 0.109375,0.984375 0,0.4375 -0.03906,0.773437 -0.109375,1 -0.0625,0.230469 -0.164063,0.386719 -0.296875,0.46875 -0.136719,0.08594 -0.324219,0.125 -0.5625,0.125 H 16.453125 V -3.1875 h 0.890625 c 0.238281,0 0.425781,0.046875 0.5625,0.140625 0.132812,0.085937 0.234375,0.242187 0.296875,0.46875 0.07031,0.230469 0.109375,0.558594 0.109375,0.984375 0,0.4375 -0.03906,0.773438 -0.109375,1 -0.0625,0.230469 -0.164063,0.386719 -0.296875,0.46875 C 17.769531,-0.0390625 17.582031,0 17.34375,0 h -5.828125 c -0.25,0 -0.445313,-0.0390625 -0.578125,-0.125 -0.125,-0.082031 -0.226562,-0.238281 -0.296875,-0.46875 -0.0625,-0.226562 -0.09375,-0.5625 -0.09375,-1 0,-0.425781 0.03125,-0.753906 0.09375,-0.984375 0.07031,-0.226563 0.171875,-0.382813 0.296875,-0.46875 0.132812,-0.09375 0.328125,-0.140625 0.578125,-0.140625 H 12.5625 V -7.84375 H 6.53125 v 4.65625 h 1.046875 c 0.25,0 0.4375,0.046875 0.5625,0.140625 0.132813,0.085937 0.234375,0.242187 0.296875,0.46875 0.070312,0.230469 0.109375,0.558594 0.109375,0.984375 0,0.4375 -0.039063,0.773438 -0.109375,1 C 8.375,-0.363281 8.273438,-0.207031 8.140625,-0.125 8.015625,-0.0390625 7.828125,0 7.578125,0 H 1.75 C 1.507812,0 1.320312,-0.0390625 1.1875,-0.125 1.050781,-0.207031 0.945312,-0.363281 0.875,-0.59375 c -0.0625,-0.226562 -0.09375,-0.5625 -0.09375,-1 0,-0.425781 0.03125,-0.753906 0.09375,-0.984375 0.070312,-0.226563 0.175781,-0.382813 0.3125,-0.46875 C 1.320312,-3.140625 1.507812,-3.1875 1.75,-3.1875 H 2.640625 V -15.265625 H 1.75 c -0.242188,0 -0.429688,-0.03906 -0.5625,-0.125 -0.136719,-0.08203 -0.242188,-0.238281 -0.3125,-0.46875 -0.0625,-0.226563 -0.09375,-0.5625 -0.09375,-1 0,-0.4375 0.03125,-0.765625 0.09375,-0.984375 0.070312,-0.226562 0.175781,-0.382812 0.3125,-0.46875 0.132812,-0.09375 0.320312,-0.140625 0.5625,-0.140625 h 5.828125 c 0.25,0 0.4375,0.04687 0.5625,0.140625 0.132813,0.08594 0.234375,0.242188 0.296875,0.46875 0.070312,0.21875 0.109375,0.546875 0.109375,0.984375 0,0.4375 -0.039063,0.773437 -0.109375,1 -0.0625,0.230469 -0.164062,0.386719 -0.296875,0.46875 -0.125,0.08594 -0.3125,0.125 -0.5625,0.125 H 6.53125 v 4.09375 h 6.03125 v -4.09375 h -1.046875 c -0.25,0 -0.445313,-0.03906 -0.578125,-0.125 -0.125,-0.08203 -0.226562,-0.238281 -0.296875,-0.46875 -0.0625,-0.226563 -0.09375,-0.5625 -0.09375,-1 0,-0.4375 0.03125,-0.765625 0.09375,-0.984375 0.07031,-0.226562 0.171875,-0.382812 0.296875,-0.46875 0.132812,-0.09375 0.328125,-0.140625 0.578125,-0.140625 z m 0,0"
           id="path59"
           style="fill:#008b47;fill-opacity:1" />
      </g>
    </g>
  </g>
  <g
     fill="#000000"
     fill-opacity="1"
     id="g73"
     transform="translate(-74.33833,-100.33203)">
    <g
       transform="translate(189.56841,219.62686)"
       id="g71">
      <g
         id="g69">
        <path
           d="m 18.265625,-18.453125 c 0.25,0 0.441406,0.04687 0.578125,0.140625 0.132812,0.08594 0.234375,0.242188 0.296875,0.46875 0.07031,0.21875 0.109375,0.546875 0.109375,0.984375 0,0.4375 -0.03906,0.773437 -0.109375,1 -0.0625,0.230469 -0.164063,0.386719 -0.296875,0.46875 -0.136719,0.08594 -0.328125,0.125 -0.578125,0.125 H 17.21875 l -5.65625,14.59375 c -0.148438,0.375 -0.371094,0.6367188 -0.671875,0.78125 C 10.597656,0.265625 10.132812,0.34375 9.5,0.34375 8.863281,0.34375 8.398438,0.265625 8.109375,0.109375 7.816406,-0.046875 7.601562,-0.304688 7.46875,-0.671875 l -5.453125,-14.59375 h -1.1875 c -0.25,0 -0.445313,-0.03906 -0.578125,-0.125 -0.136719,-0.08203 -0.234375,-0.238281 -0.296875,-0.46875 -0.070313,-0.226563 -0.109375,-0.5625 -0.109375,-1 0,-0.4375 0.039062,-0.765625 0.109375,-0.984375 0.0625,-0.226562 0.160156,-0.382812 0.296875,-0.46875 0.132812,-0.09375 0.328125,-0.140625 0.578125,-0.140625 h 6.75 c 0.25,0 0.4375,0.04687 0.5625,0.140625 0.132813,0.08594 0.234375,0.242188 0.296875,0.46875 0.070312,0.21875 0.109375,0.546875 0.109375,0.984375 0,0.4375 -0.039063,0.773437 -0.109375,1 -0.0625,0.230469 -0.164062,0.386719 -0.296875,0.46875 -0.125,0.08594 -0.3125,0.125 -0.5625,0.125 H 6.1875 l 3.34375,9.53125 3.5625,-9.53125 h -1.109375 c -0.25,0 -0.445313,-0.03906 -0.578125,-0.125 -0.136719,-0.08203 -0.234375,-0.238281 -0.296875,-0.46875 -0.0625,-0.226563 -0.09375,-0.5625 -0.09375,-1 0,-0.4375 0.03125,-0.765625 0.09375,-0.984375 0.0625,-0.226562 0.160156,-0.382812 0.296875,-0.46875 0.132812,-0.09375 0.328125,-0.140625 0.578125,-0.140625 z m 0,0"
           id="path67"
           style="fill:#008b47;fill-opacity:1" />
      </g>
    </g>
  </g>
  <g
     fill="#000000"
     fill-opacity="1"
     id="g81"
     transform="translate(-74.33833,-100.33203)">
    <g
       transform="translate(212.80193,219.62686)"
       id="g79">
      <g
         id="g77">
        <path
           d="m 15.15625,-18.453125 c 0.25,0 0.441406,0.04687 0.578125,0.140625 0.132813,0.08594 0.234375,0.242188 0.296875,0.46875 0.07031,0.21875 0.109375,0.546875 0.109375,0.984375 0,0.4375 -0.03906,0.773437 -0.109375,1 -0.0625,0.230469 -0.164062,0.386719 -0.296875,0.46875 -0.136719,0.08594 -0.328125,0.125 -0.578125,0.125 H 11.484375 V -3.1875 h 3.984375 c 0.25,0 0.441406,0.046875 0.578125,0.140625 0.132813,0.085937 0.234375,0.242187 0.296875,0.46875 0.07031,0.230469 0.109375,0.558594 0.109375,0.984375 0,0.4375 -0.03906,0.773438 -0.109375,1 -0.0625,0.230469 -0.164062,0.386719 -0.296875,0.46875 C 15.910156,-0.0390625 15.71875,0 15.46875,0 H 3.625 C 3.375,0 3.179688,-0.0390625 3.046875,-0.125 2.910156,-0.207031 2.804688,-0.363281 2.734375,-0.59375 c -0.0625,-0.226562 -0.09375,-0.5625 -0.09375,-1 0,-0.425781 0.03125,-0.753906 0.09375,-0.984375 0.070313,-0.226563 0.175781,-0.382813 0.3125,-0.46875 C 3.179688,-3.140625 3.375,-3.1875 3.625,-3.1875 H 7.609375 V -15.265625 H 3.9375 c -0.25,0 -0.445312,-0.03906 -0.578125,-0.125 -0.136719,-0.08203 -0.242187,-0.238281 -0.3125,-0.46875 -0.0625,-0.226563 -0.09375,-0.5625 -0.09375,-1 0,-0.4375 0.03125,-0.765625 0.09375,-0.984375 0.070313,-0.226562 0.175781,-0.382812 0.3125,-0.46875 0.132813,-0.09375 0.328125,-0.140625 0.578125,-0.140625 z m 0,0"
           id="path75"
           style="fill:#008b47;fill-opacity:1" />
      </g>
    </g>
  </g>
  <g
     fill="#000000"
     fill-opacity="1"
     id="g89"
     transform="translate(-74.33833,-100.33203)">
    <g
       transform="translate(236.03545,219.62686)"
       id="g87">
      <g
         id="g85">
        <path
           d="m 10.109375,-18.453125 c 2.1875,0 3.863281,0.484375 5.03125,1.453125 1.175781,0.960938 1.765625,2.355469 1.765625,4.1875 0,2.398438 -1.289062,3.90625 -3.859375,4.53125 0.5625,0.210938 1.003906,0.527344 1.328125,0.953125 0.21875,0.28125 0.414062,0.578125 0.59375,0.890625 0.1875,0.304688 0.398438,0.6875 0.640625,1.15625 0.25,0.492188 0.441406,0.84375 0.578125,1.0625 0.207031,0.34375 0.414062,0.605469 0.625,0.78125 0.207031,0.167969 0.441406,0.25 0.703125,0.25 h 0.28125 c 0.25,0 0.441406,0.046875 0.578125,0.140625 0.132812,0.085937 0.234375,0.242187 0.296875,0.46875 0.07031,0.230469 0.109375,0.558594 0.109375,0.984375 0,0.4375 -0.03906,0.773438 -0.109375,1 C 18.609375,-0.363281 18.507812,-0.207031 18.375,-0.125 18.238281,-0.0390625 18.046875,0 17.796875,0 h -1.5 c -0.824219,0 -1.492187,-0.164062 -2,-0.5 -0.5,-0.332031 -0.964844,-0.882812 -1.390625,-1.65625 -0.210938,-0.363281 -0.460938,-0.863281 -0.75,-1.5 C 11.945312,-4.132812 11.75,-4.546875 11.5625,-4.890625 11.375,-5.234375 11.171875,-5.570312 10.953125,-5.90625 10.628906,-6.351562 10.269531,-6.675781 9.875,-6.875 9.476562,-7.070312 9.003906,-7.171875 8.453125,-7.171875 H 7.46875 V -3.1875 h 1.5 c 0.25,0 0.441406,0.046875 0.578125,0.140625 0.132813,0.085937 0.234375,0.242187 0.296875,0.46875 0.070312,0.230469 0.109375,0.558594 0.109375,0.984375 0,0.4375 -0.039063,0.773438 -0.109375,1 C 9.78125,-0.363281 9.679688,-0.207031 9.546875,-0.125 9.410156,-0.0390625 9.21875,0 8.96875,0 H 1.90625 C 1.664062,0 1.476562,-0.0390625 1.34375,-0.125 1.207031,-0.207031 1.101562,-0.363281 1.03125,-0.59375 c -0.0625,-0.226562 -0.09375,-0.5625 -0.09375,-1 0,-0.425781 0.03125,-0.753906 0.09375,-0.984375 0.070312,-0.226563 0.175781,-0.382813 0.3125,-0.46875 C 1.476562,-3.140625 1.664062,-3.1875 1.90625,-3.1875 H 3.578125 V -15.265625 H 1.90625 c -0.242188,0 -0.429688,-0.03906 -0.5625,-0.125 -0.136719,-0.08203 -0.242188,-0.238281 -0.3125,-0.46875 -0.0625,-0.226563 -0.09375,-0.5625 -0.09375,-1 0,-0.4375 0.03125,-0.765625 0.09375,-0.984375 0.070312,-0.226562 0.175781,-0.382812 0.3125,-0.46875 0.132812,-0.09375 0.320312,-0.140625 0.5625,-0.140625 z m -2.640625,7.9375 h 2.3125 c 1.050781,0 1.832031,-0.1875 2.34375,-0.5625 0.507812,-0.375 0.765625,-0.953125 0.765625,-1.734375 0,-0.78125 -0.257813,-1.359375 -0.765625,-1.734375 -0.511719,-0.375 -1.292969,-0.5625 -2.34375,-0.5625 h -2.3125 z m 0,0"
           id="path83"
           style="fill:#008b47;fill-opacity:1" />
      </g>
    </g>
  </g>
  <g
     fill="#000000"
     fill-opacity="1"
     id="g97"
     transform="translate(-74.33833,-100.33203)">
    <g
       transform="translate(259.26897,219.62686)"
       id="g95">
      <g
         id="g93">
        <path
           d="m 10.84375,-18.453125 c 0.40625,0 0.738281,0.08594 1,0.25 0.257812,0.15625 0.445312,0.40625 0.5625,0.75 L 16.921875,-3.1875 h 1.34375 c 0.25,0 0.441406,0.042969 0.578125,0.125 0.132812,0.085938 0.234375,0.242188 0.296875,0.46875 0.07031,0.230469 0.109375,0.5625 0.109375,1 0,0.429688 -0.03906,0.757812 -0.109375,0.984375 C 19.078125,-0.378906 18.976562,-0.21875 18.84375,-0.125 18.707031,-0.0390625 18.515625,0 18.265625,0 h -6.59375 c -0.25,0 -0.445313,-0.0390625 -0.578125,-0.125 -0.125,-0.09375 -0.226562,-0.253906 -0.296875,-0.484375 -0.0625,-0.226563 -0.09375,-0.554687 -0.09375,-0.984375 0,-0.4375 0.03125,-0.769531 0.09375,-1 0.07031,-0.226562 0.171875,-0.382812 0.296875,-0.46875 0.132812,-0.082031 0.328125,-0.125 0.578125,-0.125 h 1.34375 L 12.3125,-5.4375 H 6.65625 l -0.703125,2.25 h 1.15625 c 0.25,0 0.441406,0.042969 0.578125,0.125 0.132812,0.085938 0.234375,0.242188 0.296875,0.46875 0.0625,0.230469 0.09375,0.5625 0.09375,1 0,0.429688 -0.03125,0.757812 -0.09375,0.984375 C 7.921875,-0.378906 7.820312,-0.21875 7.6875,-0.125 7.550781,-0.0390625 7.359375,0 7.109375,0 H 0.828125 C 0.578125,0 0.382812,-0.0390625 0.25,-0.125 0.113281,-0.21875 0.015625,-0.378906 -0.046875,-0.609375 -0.117188,-0.835938 -0.15625,-1.164062 -0.15625,-1.59375 c 0,-0.4375 0.039062,-0.769531 0.109375,-1 0.0625,-0.226562 0.160156,-0.382812 0.296875,-0.46875 0.132812,-0.082031 0.328125,-0.125 0.578125,-0.125 H 2.125 L 6.0625,-15.265625 H 3.46875 c -0.25,0 -0.445312,-0.03906 -0.578125,-0.125 -0.136719,-0.09375 -0.242187,-0.253906 -0.3125,-0.484375 -0.0625,-0.226562 -0.09375,-0.5625 -0.09375,-1 0,-0.425781 0.03125,-0.753906 0.09375,-0.984375 0.070313,-0.226563 0.175781,-0.382813 0.3125,-0.46875 0.132813,-0.08203 0.328125,-0.125 0.578125,-0.125 z m -1.375,3.1875 L 7.5625,-8.625 h 3.859375 L 9.5625,-15.265625 Z m 0,0"
           id="path91"
           style="fill:#008b47;fill-opacity:1" />
      </g>
    </g>
  </g>
  <g
     fill="#000000"
     fill-opacity="1"
     id="g105"
     transform="translate(-74.33833,-100.33203)">
    <g
       transform="translate(282.50249,219.62686)"
       id="g103">
      <g
         id="g101">
        <path
           d="m 17.34375,-18.453125 c 0.238281,0 0.425781,0.04687 0.5625,0.140625 0.132812,0.08594 0.234375,0.242188 0.296875,0.46875 0.07031,0.21875 0.109375,0.546875 0.109375,0.984375 0,0.4375 -0.03906,0.773437 -0.109375,1 -0.0625,0.230469 -0.164063,0.386719 -0.296875,0.46875 -0.136719,0.08594 -0.324219,0.125 -0.5625,0.125 H 14.4375 v 9.625 c 0,1.992187 -0.558594,3.484375 -1.671875,4.484375 -1.117187,1 -2.757813,1.5 -4.921875,1.5 -2.429688,0 -4.449219,-0.757812 -6.0625,-2.28125 C 1.625,-2.101562 1.546875,-2.363281 1.546875,-2.71875 v -5.046875 c 0,-0.34375 0.15625,-0.585937 0.46875,-0.734375 0.3125,-0.15625 0.835937,-0.234375 1.578125,-0.234375 0.488281,0 0.863281,0.039063 1.125,0.109375 0.257812,0.0625 0.441406,0.164062 0.546875,0.296875 0.101563,0.136719 0.15625,0.324219 0.15625,0.5625 V -3.71875 C 6.140625,-3.363281 7,-3.1875 8,-3.1875 c 0.851562,0 1.492188,-0.222656 1.921875,-0.671875 0.425781,-0.457031 0.640625,-1.15625 0.640625,-2.09375 v -9.3125 H 5.796875 c -0.25,0 -0.445313,-0.03906 -0.578125,-0.125 -0.136719,-0.08203 -0.242188,-0.238281 -0.3125,-0.46875 -0.0625,-0.226563 -0.09375,-0.5625 -0.09375,-1 0,-0.4375 0.03125,-0.765625 0.09375,-0.984375 0.070312,-0.226562 0.175781,-0.382812 0.3125,-0.46875 0.132812,-0.09375 0.328125,-0.140625 0.578125,-0.140625 z m 0,0"
           id="path99"
           style="fill:#008b47;fill-opacity:1" />
      </g>
    </g>
  </g>
</svg>
